<svg width="176" height="52" viewBox="0 0 176 52" fill="none" xmlns="http://www.w3.org/2000/svg">
<path fill-rule="evenodd" clip-rule="evenodd" d="M0 16.3715V16.4998L29.754 30.2638L59.6129 16.453V16.4183L29.754 2.60806L0 16.3715ZM10.7268 16.436L29.7546 7.6342L48.7843 16.436L29.754 25.237L10.7268 16.436ZM29.754 35.6097L0 22.0518V27.0664L29.754 40.6554L59.6129 27.0202V22.005L29.754 35.6097ZM29.754 45.78L0 32.2209V37.2355L29.754 50.8262L59.6129 37.1893V32.1747L29.754 45.78Z" fill="white"/>
<path fill-rule="evenodd" clip-rule="evenodd" d="M169.216 26.2208C169.216 25.058 169.012 23.9737 168.604 22.968C168.195 21.9624 167.638 21.0824 166.931 20.3281C166.225 19.5738 165.4 18.9846 164.458 18.5603C163.516 18.136 162.511 17.9239 161.443 17.9239C160.375 17.9239 159.37 18.136 158.428 18.5603C157.486 18.9846 156.661 19.5738 155.955 20.3281C155.248 21.0824 154.691 21.9624 154.282 22.968C153.874 23.9737 153.67 25.058 153.67 26.2208C153.67 27.3837 153.874 28.4679 154.282 29.4736C154.691 30.4793 155.248 31.3593 155.955 32.1136C156.661 32.8678 157.486 33.4571 158.428 33.8814C159.37 34.3057 160.375 34.5178 161.443 34.5178C162.511 34.5178 163.516 34.3057 164.458 33.8814C165.4 33.4571 166.225 32.8678 166.931 32.1136C167.638 31.3593 168.195 30.4793 168.604 29.4736C169.012 28.4679 169.216 27.3837 169.216 26.2208ZM176 26.2208C176 28.2637 175.623 30.1572 174.869 31.9014C174.116 33.6456 173.079 35.1542 171.76 36.427C170.441 37.6998 168.894 38.7055 167.12 39.4441C165.345 40.1827 163.453 40.5519 161.443 40.5519C159.433 40.5519 157.549 40.1827 155.79 39.4441C154.031 38.7055 152.492 37.6921 151.173 36.4035C149.854 35.1149 148.818 33.5986 148.064 31.8543C147.31 30.1101 146.933 28.2322 146.933 26.2208C146.933 24.2409 147.318 22.3788 148.087 20.6345C148.857 18.8903 149.901 17.366 151.22 16.0618C152.539 14.7575 154.078 13.7361 155.837 12.9976C157.596 12.259 159.464 11.8897 161.443 11.8897C163.453 11.8897 165.345 12.259 167.12 12.9976C168.894 13.7361 170.441 14.7418 171.76 16.0146C173.079 17.2875 174.116 18.8039 174.869 20.5638C175.623 22.3238 176 24.2095 176 26.2208ZM144.578 39.7034C144.044 39.9548 143.439 40.1591 142.764 40.3162C142.089 40.4734 141.39 40.5519 140.668 40.5519C139.663 40.5519 138.697 40.4184 137.77 40.1513C136.844 39.8841 136.035 39.452 135.344 38.8549C134.653 38.2578 134.104 37.4798 133.695 36.5213C133.287 35.5628 133.083 34.4078 133.083 33.0564V0.71714H140.008V31.8779C140.008 33.0092 140.236 33.7871 140.691 34.2114C141.147 34.6357 141.688 34.8478 142.316 34.8478C143.102 34.8478 143.855 34.6121 144.578 34.1407V39.7034V39.7034ZM130.021 12.5497L117.772 44.9362C116.861 47.3561 115.668 49.1003 114.192 50.1689C112.716 51.2374 110.957 51.7717 108.915 51.7717C108.601 51.7717 108.256 51.7482 107.879 51.701C107.502 51.6538 107.141 51.5832 106.795 51.4889L104.534 45.1719C105.068 45.4233 105.618 45.6197 106.183 45.7611C106.748 45.9025 107.282 45.9733 107.785 45.9733C108.853 45.9733 109.826 45.7297 110.706 45.2426C111.585 44.7555 112.26 43.8519 112.731 42.5319L113.674 39.7977L103.168 12.5497H110.564L116.83 30.0864L122.719 12.5497H130.021ZM101.519 8.44839H83.8058V17.2167H101.284V23.1566H83.8058V39.8448H76.6451V2.1785H101.519V8.44839Z" fill="white"/>
</svg>
